<svg version="1.2" xmlns="http://www.w3.org/2000/svg" viewBox="0 0 706 706" width="64" height="64"><path d="m509.9 334.2c55.8 13.6 90.3 47.2 83.6 121-8.6 92.6-76.3 115.7-174.5 121.7l0.3 97-57.7-0.1v-95.8l-46.2-0.5v95.7l-57.7-0.2-0.4-96.9c-14.2 0.8-27.5 0.2-42-0.2l-75.9 0.6 11.6-69.8c0 0 42.3 1.4 42 0.1 15.7-0.1 20.4-12.9 21.4-19.7l0.4-152.2 0.7-109c-3.1-12.4-10.4-26.3-33.9-25.7l-42-0.2 0.5-61.7 79.9-0.1c12.1 1 23.8 0.7 36.8 0.1l-0.1-95.7 57.8 0.1-0.6 93.3c15.5-1.2 31.2-1.1 46.9-1.1l0.6-93.2 57.8 0.1v95.7c75 6.4 134.6 29.7 141.1 98.9 5 51.3-15.2 81.2-50.4 97.8zm-288.6 0.4c-1.3 0.3-4-0.3-6.5 0.3 1.3-0.3 4 0.3 6.5-0.3zm95 44.7l0.2 128.5c39.3-0.5 162.3 8.4 162.6-63.8-0.4-76-123.6-65.2-162.8-64.7zm-0.3-175.7v116.8c33 1 137.1 8.1 136.7-57.4-0.2-69.5-103.6-58.4-136.7-59.4z" fill="#ffffff" /></svg>