<svg xmlns="http://www.w3.org/2000/svg" viewBox="0 0 1024 1024" width="64" height="64"><path d="M330.453333 369.664m26.026667 0l33.28 0q26.026667 0 26.026667 26.026667l0 365.141333q0 26.026667-26.026667 26.026667l-33.28 0q-26.026667 0-26.026667-26.026667l0-365.141333q0-26.026667 26.026667-26.026667Z" fill="#ffffff" p-id="17299"></path><path d="M613.12 369.664m26.026667 0l33.28 0q26.026667 0 26.026666 26.026667l0 365.141333q0 26.026667-26.026666 26.026667l-33.28 0q-26.026667 0-26.026667-26.026667l0-365.141333q0-26.026667 26.026667-26.026667Z" fill="#ffffff" p-id="17300"></path><path d="M947.754667 137.984h-203.733334V27.562667a25.6 25.6 0 0 0-25.6-25.6H313.6a25.6 25.6 0 0 0-25.6 25.6v110.421333H76.288a25.6 25.6 0 0 0-25.6 25.6v34.133333a25.6 25.6 0 0 0 25.6 25.6h37.034667v800.128h509.141333a59.733333 59.733333 0 0 0 59.733333-59.733333 25.6 25.6 0 0 0-25.6-25.6H198.656V223.317333H347.733333a25.6 25.6 0 0 0 25.6-25.6V87.296h285.354667v110.421333a25.6 25.6 0 0 0 25.6 25.6h141.056v774.528a25.6 25.6 0 0 0 25.6 25.6 59.733333 59.733333 0 0 0 59.733333-59.733333V223.317333h37.077334a25.6 25.6 0 0 0 25.6-25.6v-34.133333a25.6 25.6 0 0 0-25.6-25.6z" fill="#ffffff"></path></svg>