<svg version="1.2" xmlns="http://www.w3.org/2000/svg" viewBox="0 0 745 745" width="64" height="64"><path d="m442 411l-46 49c-22-4.7-41.8-6.5-59.7-4.9q-26.7 1.5-45.6 11.8-18.9 10.2-29.9 29.1-10.3 18.1-10.3 42.5 0 44.8 35.5 68.5 35.4 22.8 92 22.8 47.8 0 87.5-29.9l-13.5-10.9 23-19 12.3 9.5c18.8-21.1 34.6-49.3 47.7-84.4l91 32.9c-9.4 29.4-22.1 56.4-37.8 80.5q-10.7 16.7-23.4 31.3l13.2 10.2-23 22-12.2-9.8q-4.3 4-8.9 7.7-30.7 25.2-70.8 39.4-39.4 13.4-87.4 13.4-50.4 0-92.1-12.6-41.7-12.6-72.4-35.5-29.9-23.6-46.5-56.6-16.5-33.1-16.5-73.2 0-40.2 14.2-72.4 14.9-32.3 40.9-55.1 26.8-23.6 63-35.4c24.6-8.4 51.3-12.4 80.7-11.9v-78h-281v-87h281v-125.5l95 26.3v99.2h238v87h-238zm-95-387l95 26v28.7l-95-26.2z" fill="#ffffff"/></svg>