<svg version="1.2" xmlns="http://www.w3.org/2000/svg" viewBox="0 0 855 855" width="64" height="64"><path d="m285.5 182.2l278.5-0.2 71 7.5c45.7 4.8 72 8 73.7 8.9 1.6 0.8 32.9 26 69.8 56.1 41.9 34.3 67.8 56.1 69.2 58.4 1.6 2.5 2.3 5.2 2.3 8.8 0 2.9-0.7 6.6-1.5 8.3-0.8 1.6-93.4 101.9-205.8 222.7-174.6 187.9-204.9 220.1-208.7 221.7-3.2 1.3-5.7 1.6-8.7 1.2-2.4-0.3-5.5-1.2-7-1.9-1.4-0.6-94.7-100.2-207.2-221.2-112.5-121-205.1-221.1-205.8-222.5-0.7-1.4-1.3-5-1.3-8 0-4 0.6-6.5 2.3-9.1 1.4-2.3 27.2-24.1 69.2-58.4 36.9-30.1 68.4-55.4 70-56.2 1.9-0.9 27.4-4 71.5-8.7zm-79.7 93.6c10.3 20 18.9 36.3 19.2 36.3 0.3 0 8.3-13.9 17.8-31 9.4-17.1 17.1-31.2 17-31.4-0.2-0.2-16.7-2.8-36.8-5.8-20-3-36.3-5.2-36.2-4.9 0.1 0.3 8.7 16.9 19 36.8zm388.4-26.1c-0.1 0.2 7.6 14.3 17 31.4 9.5 17.1 17.5 31 17.8 31 0.3 0 8.9-16.4 19.2-36.5 10.4-20.1 18.6-36.6 18.4-36.8-0.2-0.2-16.5 2.2-36.2 5.1-19.8 3-36 5.6-36.2 5.8zm-526.6 60.4c0.3 0.3 28.1 4.6 61.8 9.6 33.6 5.1 61.2 9 61.4 8.8 0.1-0.2-9.5-19.2-21.2-42.2-11.8-22.9-21.9-41.8-22.3-41.9-0.4-0.1-18.7 14.5-40.6 32.5-21.8 18-39.5 32.9-39.1 33.2zm614.8-19.8c-10.7 20.8-19.3 38-19.1 38.2 0.1 0.2 27.7-3.7 61.3-8.8 33.7-5 61.5-9.3 61.8-9.6 0.4-0.3-17.2-15.1-39.1-33-21.8-17.9-40-32.7-40.4-32.8-0.4-0.2-1.7 1.6-2.9 4-1.2 2.3-11 21.3-21.6 42zm-384.8-32c-1.3 2.4-13.5 24.4-27 48.9-13.5 24.6-24.6 45.1-24.6 45.8 0 0.6 40.6 82.3 90.3 181.6 49.6 99.3 90.4 180.5 90.7 180.5 0.3 0 41.2-81.5 91-181l90.5-181c-6.5-12-18.7-34.2-31.3-57l-22.9-41.5-254.2-0.5zm-223.4 92.6c1.4 1.5 62.5 67.3 135.8 146.2 73.3 79 135.3 145.6 137.8 148 4 4.1-2.6-9.6-65.7-135.7-38.5-77.2-70.4-140.3-70.8-140.3-0.4 0-30.9-4.4-67.7-9.9-36.9-5.5-68.2-10.2-69.5-10.5l-2.5-0.5zm579 16.9l-11.4 1.8c-132.8 265.9-139.4 279.6-135.4 275.5 2.4-2.4 64.4-69 137.7-148 73.3-78.9 134.4-144.7 135.8-146.2 1.4-1.5 2.3-2.7 2.1-2.7-0.2 0.1-26.8 4.1-58.9 9-32.2 4.8-63.7 9.6-69.9 10.6zm-251.6 194q-17.9-5.1-31.7-16.3-13.8-11.2-20.5-25.6-9.3-20.2-9.3-40.3 0-20.2 8.7-37.8 8.9-17.6 25.9-29.4 17.3-11.9 41-14.4v-25h-108.8v-40h108.8v-38.7h40.3v38.7h103.7v40h-103.7v61.1q-8.3-0.6-11.9-0.6-20.4 0-35.2 6.4-14.7 6.4-22.4 17.6-7.3 10.9-7.3 24.3 0 7.7 2.2 14.4 4.5 13.1 17.6 21.4 13.1 8 27.5 8 19.9 0 34.6-12.1 15-12.5 16.6-34.9l34.9 5.8q-3.8 27.8-16.6 46-12.8 18.3-30.4 26.6-17.6 8.3-37.8 8.3-13.1 0-26.2-3.5z" fill="#ffffff"/></svg>