<svg version="1.2" xmlns="http://www.w3.org/2000/svg" viewBox="0 0 1024 1024" width="64" height="64"><path d="M580.315429 721.92c-14.189714 0-24.210286-2.340571-29.988572-6.948571-5.851429-4.388571-8.704-13.019429-8.704-25.6 0-4.973714 0.877714-12.361143 2.706286-22.089143 1.755429-9.728 3.876571-18.432 5.997714-26.038857L577.828571 546.742857c2.706286-8.777143 4.608-18.285714 5.485715-28.598857 1.024-10.459429 1.536-17.700571 1.536-21.796571a61.44 61.44 0 0 0-21.577143-48.64c-14.409143-12.434286-34.816-18.651429-61.44-18.651429-14.701714 0-30.281143 2.56-46.811429 7.68-16.603429 5.12-33.865143 11.117714-51.931428 18.285714l-7.314286 29.257143c5.339429-1.901714 11.702857-4.022857 19.163429-6.144 7.168-2.121143 14.628571-3.218286 22.016-3.218286 14.628571 0 24.356571 2.267429 29.476571 7.094858s7.68 13.238857 7.68 25.380571c0 6.656-0.731429 14.116571-2.413714 22.235429a430.08 430.08 0 0 1-6.217143 25.819428l-27.648 94.939429a271.36 271.36 0 0 0-5.412572 26.843428 166.034286 166.034286 0 0 0-1.609142 23.259429c0 19.382857 7.387429 35.547429 22.308571 48.201143 14.774857 12.653714 35.547429 19.017143 62.317714 19.017143 17.408 0 32.621714-2.267429 45.787429-6.656s30.793143-10.971429 52.809143-19.382858l7.387428-29.184a131.657143 131.657143 0 0 1-18.432 5.924572 87.04 87.04 0 0 1-22.674285 3.510857z m28.891428-448.512a66.267429 66.267429 0 0 0-46.299428-17.554286 66.779429 66.779429 0 0 0-46.445715 17.554286 55.003429 55.003429 0 0 0-19.456 42.203429 54.491429 54.491429 0 0 0 19.456 42.130285 67.437714 67.437714 0 0 0 46.445715 17.334857c17.115429 0.365714 33.645714-5.851429 46.299428-17.334857a54.637714 54.637714 0 0 0 19.236572-42.130285 55.222857 55.222857 0 0 0-19.236572-42.203429zM512 0a512 512 0 1 0 0 1024A512 512 0 0 0 512 0z m0 949.467429a437.394286 437.394286 0 1 1 0-874.788572 437.394286 437.394286 0 0 1 0 874.788572z" fill="#ffffff"></path></svg>