<svg xmlns="http://www.w3.org/2000/svg" viewBox="0 0 1024 1024" width="64" height="64"><path d="M512 119.146496C729.197568 118.90688 905.484288 294.795264 905.730048 512c0.233472 217.197568-175.654912 393.483264-392.859648 393.730048-217.204736 0.233472-393.483264-175.654912-393.72288-392.859648 0-0.287744 0-0.582656 0-0.8704C119.387136 295.130112 295.131136 119.386112 512 119.146496M512 63.025152c-247.964672 0-448.974848 201.009152-448.974848 448.974848 0 247.97184 201.010176 448.974848 448.974848 448.974848 247.97184 0 448.974848-201.003008 448.974848-448.974848C960.974848 264.034304 759.97184 63.025152 512 63.025152L512 63.025152zM549.706752 690.916352c7.440384 0.013312 14.578688-2.946048 19.84-8.220672L735.296512 512.575488 569.520128 342.441984c-10.770432-11.14624-28.526592-11.454464-39.68-0.6912-11.140096 10.769408-11.44832 28.53376-0.685056 39.68 0.219136 0.233472 0.464896 0.46592 0.685056 0.692224L660.333568 512.603136 529.840128 643.083264c-10.913792 11.00288-10.845184 28.760064 0.149504 39.694336C535.237632 687.983616 542.308352 690.902016 549.706752 690.916352zM315.292672 539.758592l360.866816 0c15.497216 0 28.060672-12.577792 28.060672-28.06784 0-15.496192-12.56448-28.060672-28.060672-28.060672l-360.866816 0c-15.496192 0-28.060672 12.56448-28.060672 28.060672C287.232 527.1808 299.79648 539.758592 315.292672 539.758592z" fill="#ffffff"></path></svg>