<svg version="1.2" xmlns="http://www.w3.org/2000/svg" viewBox="0 0 1024 1024" width="64" height="64"><path d="M307.2 375.47008l-34.12992-204.8H102.4v68.25984h112.83456l91.04384 546.14016h546.70336l68.62848-409.6H307.2z" fill="#ffffff"></path><path d="M443.72992 870.4m-51.2 0a51.2 51.2 0 1 0 102.4 0 51.2 51.2 0 1 0-102.4 0Z" fill="#ffffff"></path><path d="M716.8 870.4m-51.2 0a51.2 51.2 0 1 0 102.4 0 51.2 51.2 0 1 0-102.4 0Z" fill="#ffffff"></path><path d="M785.07008 102.4v68.27008H716.8v68.25984h68.27008V307.2h68.25984v-68.27008H921.6v-68.25984h-68.27008V102.4z" fill="#ffffff"></path></svg>