<svg xmlns="http://www.w3.org/2000/svg" viewBox="0 0 1024 1024" width="64" height="64"><path d="M512 85.333333C276.736 85.333333 85.333333 276.736 85.333333 512v176.768C85.333333 732.458667 123.605333 768 170.666667 768h42.666666a42.666667 42.666667 0 0 0 42.666667-42.666667v-219.434666a42.666667 42.666667 0 0 0-42.666667-42.666667h-38.741333C198.314667 298.112 340.394667 170.666667 512 170.666667s313.685333 127.445333 337.408 292.565333H810.666667a42.666667 42.666667 0 0 0-42.666667 42.666667V768c0 47.061333-38.272 85.333333-85.333333 85.333333h-85.333334v-42.666666h-170.666666v128h256c94.122667 0 170.666667-76.544 170.666666-170.666667 47.061333 0 85.333333-35.541333 85.333334-79.232V512c0-235.264-191.402667-426.666667-426.666667-426.666667z" fill="#ffffff"></path></svg>