<svg version="1.2" xmlns="http://www.w3.org/2000/svg" viewBox="0 0 1024 1024" width="64" height="64"><path d="M885.710912 177.01253 251.534292 177.01253 251.534292 65.098647 65.012178 273.990235l186.522114 201.458291 0-149.21851 484.95811 0c49.507554 0 37.303604 37.304627 37.303604 37.304627l0 37.304627 186.523137 201.422476L960.319144 273.990235C960.319144 182.586478 885.710912 177.01253 885.710912 177.01253zM773.796006 699.275267l-507.179204-0.035816c-27.39493 0-15.08251-37.268812-15.08251-37.268812l0-37.303604L65.012178 438.143898l1.384533 313.954435c0 82.077344 73.224722 96.395444 73.224722 96.395444l634.174574 0L773.796006 960.406636l186.523137-208.927403L773.796006 550.057781 773.796006 699.275267z" p-id="44687" fill="#ffffff"></path></svg>