<svg version="1.2" xmlns="http://www.w3.org/2000/svg" viewBox="0 0 1024 1024" width="64" height="64"><path  d="m439.2 556.5c-4.1 4.2-7.4 9.1-9.6 14.5-2.3 5.4-3.4 11.2-3.4 17.1 0 5.8 1.1 11.6 3.4 17 2.2 5.4 5.5 10.3 9.6 14.5l107.4 107.4c4.2 4.2 9.1 7.4 14.5 9.7 5.4 2.2 11.2 3.3 17 3.3 5.9 0 11.7-1.1 17.1-3.3 5.4-2.3 10.3-5.5 14.5-9.7l218.7-218.7c4.2-4.2 9.1-7.4 14.5-9.7 5.4-2.2 11.2-3.3 17-3.3 5.9 0 11.7 1.1 17.1 3.3 5.4 2.3 10.3 5.5 14.5 9.7l68.9 69c17.4 17.3 31.6 11.4 31.6-13.1v-351.6c0-24.5-20.1-44.5-44.6-44.5h-351.5c-24.5 0-30.4 14.2-13.1 31.5l75.2 75.2c4.1 4.1 7.3 9 9.6 14.5 2.2 5.4 3.4 11.2 3.4 17 0 5.9-1.2 11.6-3.4 17.1-2.3 5.4-5.5 10.3-9.6 14.4zm22.4-304.1c15.4 0 30.9 5.9 42.7 17.6 2.6 3 4 6.9 3.9 11-0.2 4-1.8 7.8-4.7 10.6-2.8 2.9-6.6 4.5-10.6 4.7-4.1 0.1-8-1.3-11-4-2.7-2.6-5.8-4.8-9.3-6.2-3.5-1.4-7.3-2.2-11-2.2-3.8 0-7.6 0.8-11.1 2.2-3.5 1.4-6.6 3.6-9.3 6.2l-218.8 218.8q-4.2 4.2-9.1 7.5-5 3.3-10.5 5.6-5.5 2.3-11.3 3.4-5.8 1.2-11.8 1.1c-16.1 0-31.3-6.2-42.7-17.6l-69-69q-0.4-0.5-0.9-1-0.5-0.4-1.1-0.9-0.5-0.4-1-0.9-0.6-0.4-1.1-0.8c-0.2 1.4-0.4 3.2-0.4 5.5v351.6c0 3.7 0.8 7.5 2.2 11 1.5 3.5 3.6 6.6 6.3 9.3 2.6 2.7 5.8 4.8 9.3 6.2 3.5 1.5 7.2 2.2 11 2.2h351.5q0.7 0 1.4 0 0.7 0 1.4-0.1 0.7 0 1.4-0.1 0.6-0.1 1.3-0.2c-0.8-1.1-2-2.5-3.6-4.1l-74.9-73.9c-2.9-3-4.6-7-4.7-11.2 0-4.1 1.7-8.2 4.6-11.1 2.9-3 6.9-4.7 11.1-4.7 4.2-0.1 8.2 1.6 11.2 4.5l75 74c17.8 17.8 15.5 32.4 12.6 39.5-2.9 7.1-11.6 19-36.8 19h-351.5c-33.3 0-60.4-27.1-60.4-60.3v-351.6c0-25.2 11.9-33.8 19-36.8 7.1-2.9 21.7-5.2 39.5 12.6l68.9 69q2 2 4.4 3.6 2.4 1.6 5 2.6 2.6 1.1 5.4 1.7 2.8 0.5 5.6 0.5 2.8 0 5.6-0.5 2.8-0.6 5.4-1.7 2.6-1 5-2.6 2.3-1.6 4.3-3.6l218.8-218.8c11.9-11.8 27.3-17.6 42.8-17.6z" fill="#ffffff"/></svg>