<svg viewBox="0 0 1024 1024" xmlns="http://www.w3.org/2000/svg" width="64" height="64"><path d="M175.636 601.383h672.727A30.881 30.881 0 0 1 882 628.301a40.168 40.168 0 0 1-33.637 37.386H444.728c-51.128-4.237-67.273 21.269-67.273 32.207V826.84c0 4.882-13.793 20.193-33.636 0L188.082 670.196a94.407 94.407 0 0 0-26.573-14.5A29.41 29.41 0 0 1 142 628.404a30.881 30.881 0 0 1 33.636-27.021z m672.727-168.255H175.636A31.285 31.285 0 0 1 142 404.861a41.318 41.318 0 0 1 33.636-39.034h403.635c51.129 4.441 67.273-22.241 67.273-33.65v-134.6c0-5.114 13.793-21 33.637 0l155.737 163.639a93.825 93.825 0 0 0 26.573 15.141A30.658 30.658 0 0 1 882 404.861a31.286 31.286 0 0 1-33.637 28.267z" fill="#ffffff"></path></svg>