<svg xmlns="http://www.w3.org/2000/svg" viewBox="0 0 1024 1024" width="64" height="64"><path d="M842.3 132.9L582.6 392.6c-13.2 13.7-12.8 35.5 0.8 48.7 13.4 12.9 34.5 12.9 47.9 0L891 181.6v123.6c0 19 15.4 34.5 34.5 34.5 19 0 34.5-15.4 34.5-34.5V98.5c0.1-19-15.3-34.4-34.3-34.5H718.8c-19 0-34.5 15.4-34.5 34.5s15.4 34.5 34.5 34.5h123.5z m-768.2 817c-6.5-6.5-10.1-15.2-10.1-24.4V718.8c0-19 15.4-34.5 34.5-34.5s34.5 15.4 34.5 34.5v123.6l259.7-259.7c13.7-13.2 35.5-12.8 48.7 0.8 12.9 13.4 12.9 34.5 0 47.9L181.7 891.1h123.6c19 0 34.5 15.4 34.5 34.5 0 19-15.4 34.5-34.5 34.5H98.5c-9.2-0.1-17.9-3.7-24.4-10.2z" fill="#ffffff"></path></svg>